# Blender v2.79 (sub 0) OBJ File: ''
# www.blender.org
o Cube
v 1.000000 -2.500000 -1.000000
v -1.000000 -2.500000 -1.000000
v 1.000000 2.500000 -1.000000
v -1.000000 2.500000 -1.000000
v 1.000000 -2.500000 -0.500000
v 1.000000 -2.500000 0.000000
v 0.500000 -2.500000 -1.000000
v 0.000000 -2.500000 -1.000000
v -0.500000 -2.500000 -1.000000
v 1.000000 -1.250000 -1.000000
v 1.000000 0.000000 -1.000000
v 1.000000 1.250000 -1.000000
v -1.000000 -2.500000 -0.000000
v -1.000000 -2.500000 -0.500000
v -1.000000 -1.250000 -1.000000
v -1.000000 0.000000 -1.000000
v -1.000000 1.250000 -1.000000
v 1.000000 2.500000 -0.500000
v 1.000000 2.500000 0.000001
v 0.500000 2.500000 -1.000000
v 0.000000 2.500000 -1.000000
v -0.500000 2.500000 -1.000000
v -1.000000 2.500000 -0.000000
v -1.000000 2.500000 -0.500000
v -0.999999 -1.250000 -4.700866
v 1.000001 0.625000 -4.700865
v 1.000001 0.000001 -4.700865
v 1.000001 -0.625000 -4.700865
v 1.000001 -1.250000 -4.700865
v 0.000001 -2.500000 -4.700866
v 0.500001 -2.500000 -4.700866
v 1.000001 -2.500000 -4.700866
v -0.499999 2.500001 -4.700865
v -1.000000 -1.250000 -0.000000
v -1.000000 -1.250000 -0.500000
v -1.000000 0.000000 -0.000000
v -1.000000 0.000000 -0.500000
v -1.000000 1.250000 -0.000000
v -1.000000 1.250000 -0.500000
v 1.000000 -1.250000 -0.500000
v 1.000000 -1.250000 0.000000
v 1.000000 0.000000 -0.500000
v 1.000000 0.000000 0.000000
v 1.000000 1.250000 -0.500000
v 1.000000 1.250000 0.000000
v 0.500000 2.500000 -0.500000
v 0.500000 2.500000 0.000000
v 0.000000 2.500000 -0.500000
v -0.000000 2.500000 0.000000
v -0.500000 2.500000 -0.500000
v -0.500000 2.500000 0.000000
v 0.500000 -2.500000 -0.500000
v 0.000000 -2.500000 -0.500000
v -0.500000 -2.500000 -0.500000
v 0.500000 -2.500000 -0.000000
v 0.000000 -2.500000 -0.000000
v -0.500000 -2.500000 -0.000000
v 1.000000 0.625000 -1.000000
v -1.000000 0.625000 -1.000000
v -0.999999 2.500001 -4.700866
v -0.999999 1.250000 -4.700866
v 1.000001 2.500001 -4.700865
v -1.000000 0.625000 -0.000000
v -1.000000 0.625000 -0.500000
v 1.000000 0.625000 -0.500000
v 1.000000 0.625000 0.000000
v 1.000000 -0.625000 -1.000000
v -1.000000 -0.625000 -1.000000
v 1.000001 1.250000 -4.700865
v -0.999999 -2.500000 -4.700866
v -0.499999 -2.500000 -4.700866
v -1.000000 -0.625000 -0.000000
v -1.000000 -0.625000 -0.500000
v 1.000000 -0.625000 -0.500000
v 1.000000 -0.625000 0.000000
v -0.499999 -2.500000 -3.116311
v -0.999999 -2.500000 -3.116311
v 1.000001 1.250000 -3.116310
v 1.000001 2.500000 -3.116310
v -0.999999 1.250000 -3.116310
v -1.000000 2.500000 -3.116310
v -0.499999 2.500000 -3.116310
v 1.000000 -2.500000 -3.116310
v 0.500000 -2.500000 -3.116311
v 0.000001 -2.500000 -3.116311
v 1.000000 -1.250000 -3.116310
v 1.000001 -0.625000 -3.116310
v 1.000001 0.000000 -3.116310
v 1.000001 0.625000 -3.116310
v -0.999999 -1.250000 -3.116311
v -0.999999 -0.625000 -3.116311
v -0.999999 0.000000 -3.116311
v -0.999999 0.625000 -3.116310
v 0.500001 2.500000 -3.116310
v 0.000001 2.500000 -3.116310
v -0.999999 -0.625000 -4.700866
v -0.999999 0.000001 -4.700866
v -0.999999 0.625000 -4.700866
v 0.500001 2.500001 -4.700865
v 0.000001 2.500001 -4.700865
v -0.499999 1.250000 -4.700865
v 0.500001 1.250000 -4.700865
v 0.000001 1.250000 -4.700865
v -0.499999 0.000001 -4.700866
v 0.500001 0.000001 -4.700865
v 0.000001 0.000001 -4.700866
v -0.499999 -1.250000 -4.700866
v 0.500001 -1.250000 -4.700866
v 0.000001 -1.250000 -4.700866
v 0.500001 0.625000 -4.700865
v 0.000001 0.625000 -4.700865
v -0.499999 0.625000 -4.700866
v 0.500001 -0.625000 -4.700866
v 0.000001 -0.625000 -4.700866
v -0.499999 -0.625000 -4.700866
vn -1.0000 -0.0000 -0.0000
vn 0.0000 0.0000 -1.0000
vn 1.0000 -0.0000 0.0000
vn -0.0000 0.0000 1.0000
vn 0.0000 1.0000 -0.0000
vn 0.0000 -1.0000 0.0000
s off
f 24//1 17//1 39//1
f 107//2 96//2 115//2
f 112//2 97//2 98//2
f 101//2 60//2 33//2
f 71//2 25//2 107//2
f 68//1 90//1 15//1
f 17//2 4//2 12//2
f 10//3 87//3 67//3
f 88//4 91//4 87//4
f 16//1 93//1 92//1
f 67//2 16//2 11//2
f 83//4 90//4 77//4
f 14//1 15//1 2//1
f 73//1 16//1 68//1
f 39//1 59//1 64//1
f 34//1 14//1 13//1
f 72//1 37//1 73//1
f 38//1 64//1 63//1
f 23//1 39//1 38//1
f 10//3 5//3 1//3
f 40//3 6//3 5//3
f 11//3 74//3 67//3
f 42//3 75//3 74//3
f 12//3 65//3 58//3
f 44//3 66//3 65//3
f 3//3 44//3 12//3
f 18//3 45//3 44//3
f 20//5 18//5 3//5
f 46//5 19//5 18//5
f 21//5 46//5 20//5
f 48//5 47//5 46//5
f 22//5 48//5 21//5
f 50//5 49//5 48//5
f 22//5 24//5 50//5
f 24//5 51//5 50//5
f 9//6 14//6 2//6
f 57//6 14//6 54//6
f 1//6 52//6 7//6
f 52//6 8//6 7//6
f 53//6 9//6 8//6
f 5//6 55//6 52//6
f 55//6 53//6 52//6
f 53//6 57//6 54//6
f 65//3 43//3 42//3
f 58//3 42//3 11//3
f 63//1 37//1 36//1
f 64//1 16//1 37//1
f 1//2 15//2 10//2
f 11//3 89//3 58//3
f 10//6 90//6 86//6
f 87//5 68//5 67//5
f 74//3 41//3 40//3
f 67//3 40//3 10//3
f 72//1 35//1 34//1
f 73//1 15//1 35//1
f 88//6 16//6 92//6
f 59//5 89//5 93//5
f 89//4 80//4 93//4
f 80//4 79//4 81//4
f 95//5 33//5 82//5
f 76//6 70//6 71//6
f 83//3 29//3 86//3
f 94//5 100//5 95//5
f 76//6 30//6 85//6
f 94//5 62//5 99//5
f 91//1 25//1 90//1
f 85//6 31//6 84//6
f 80//1 98//1 93//1
f 87//3 29//3 28//3
f 84//6 32//6 83//6
f 93//1 97//1 92//1
f 92//1 96//1 91//1
f 81//5 33//5 60//5
f 88//3 26//3 89//3
f 90//1 70//1 77//1
f 81//1 61//1 80//1
f 89//3 69//3 78//3
f 78//3 62//3 79//3
f 88//3 28//3 27//3
f 69//2 99//2 62//2
f 102//2 100//2 99//2
f 103//2 33//2 100//2
f 27//2 110//2 26//2
f 105//2 111//2 110//2
f 106//2 112//2 111//2
f 29//2 113//2 28//2
f 108//2 114//2 113//2
f 109//2 115//2 114//2
f 32//2 108//2 29//2
f 31//2 109//2 108//2
f 30//2 107//2 109//2
f 111//2 101//2 103//2
f 110//2 103//2 102//2
f 26//2 102//2 69//2
f 112//2 61//2 101//2
f 114//2 104//2 106//2
f 113//2 106//2 105//2
f 28//2 105//2 27//2
f 115//2 97//2 104//2
f 24//1 4//1 17//1
f 107//2 25//2 96//2
f 112//2 104//2 97//2
f 101//2 61//2 60//2
f 71//2 70//2 25//2
f 68//1 91//1 90//1
f 4//2 3//2 12//2
f 12//2 58//2 59//2
f 59//2 17//2 12//2
f 10//3 86//3 87//3
f 88//4 92//4 91//4
f 16//1 59//1 93//1
f 67//2 68//2 16//2
f 83//4 86//4 90//4
f 14//1 35//1 15//1
f 73//1 37//1 16//1
f 39//1 17//1 59//1
f 34//1 35//1 14//1
f 72//1 36//1 37//1
f 38//1 39//1 64//1
f 23//1 24//1 39//1
f 10//3 40//3 5//3
f 40//3 41//3 6//3
f 11//3 42//3 74//3
f 42//3 43//3 75//3
f 12//3 44//3 65//3
f 44//3 45//3 66//3
f 3//3 18//3 44//3
f 18//3 19//3 45//3
f 20//5 46//5 18//5
f 46//5 47//5 19//5
f 21//5 48//5 46//5
f 48//5 49//5 47//5
f 22//5 50//5 48//5
f 50//5 51//5 49//5
f 22//5 4//5 24//5
f 24//5 23//5 51//5
f 9//6 54//6 14//6
f 57//6 13//6 14//6
f 1//6 5//6 52//6
f 52//6 53//6 8//6
f 53//6 54//6 9//6
f 5//6 6//6 55//6
f 55//6 56//6 53//6
f 53//6 56//6 57//6
f 65//3 66//3 43//3
f 58//3 65//3 42//3
f 63//1 64//1 37//1
f 64//1 59//1 16//1
f 1//2 2//2 15//2
f 11//3 88//3 89//3
f 10//6 15//6 90//6
f 87//5 91//5 68//5
f 74//3 75//3 41//3
f 67//3 74//3 40//3
f 72//1 73//1 35//1
f 73//1 68//1 15//1
f 88//6 11//6 16//6
f 59//5 58//5 89//5
f 89//4 78//4 80//4
f 80//4 78//4 79//4
f 95//5 100//5 33//5
f 76//6 77//6 70//6
f 83//3 32//3 29//3
f 94//5 99//5 100//5
f 76//6 71//6 30//6
f 94//5 79//5 62//5
f 91//1 96//1 25//1
f 85//6 30//6 31//6
f 80//1 61//1 98//1
f 87//3 86//3 29//3
f 84//6 31//6 32//6
f 93//1 98//1 97//1
f 92//1 97//1 96//1
f 81//5 82//5 33//5
f 88//3 27//3 26//3
f 90//1 25//1 70//1
f 81//1 60//1 61//1
f 89//3 26//3 69//3
f 78//3 69//3 62//3
f 88//3 87//3 28//3
f 69//2 102//2 99//2
f 102//2 103//2 100//2
f 103//2 101//2 33//2
f 27//2 105//2 110//2
f 105//2 106//2 111//2
f 106//2 104//2 112//2
f 29//2 108//2 113//2
f 108//2 109//2 114//2
f 109//2 107//2 115//2
f 32//2 31//2 108//2
f 31//2 30//2 109//2
f 30//2 71//2 107//2
f 111//2 112//2 101//2
f 110//2 111//2 103//2
f 26//2 110//2 102//2
f 112//2 98//2 61//2
f 114//2 115//2 104//2
f 113//2 114//2 106//2
f 28//2 113//2 105//2
f 115//2 96//2 97//2
