# Blender v2.79 (sub 0) OBJ File: ''
# www.blender.org
o Cube_Cube.001
v -1.000000 -1.000000 1.000000
v -0.796423 1.000000 1.000000
v -1.000000 -0.825237 -1.000000
v -0.796423 1.000000 -1.000000
v 1.000000 -1.000000 1.000000
v 0.796423 1.000000 1.000000
v 1.000000 -0.825237 -1.000000
v 0.796423 1.000000 -1.000000
v -1.000000 -1.000000 -0.600000
v -1.000000 -1.000000 -0.200000
v -1.000000 -1.000000 0.200000
v -1.000000 -1.000000 0.600000
v -1.000000 -0.600000 1.000000
v -1.000000 -0.200000 1.000000
v -1.000000 0.200000 1.000000
v -1.000000 0.600000 1.000000
v -0.796423 1.000000 0.600000
v -0.796423 1.000000 0.200000
v -0.796423 1.000000 -0.200000
v -0.796423 1.000000 -0.600000
v -1.000000 0.600000 -1.000000
v -1.000000 0.200000 -1.000000
v -1.000000 -0.200000 -1.000000
v -1.000000 -0.600000 -1.000000
v 0.600000 -0.825237 -1.000000
v 0.200000 -0.825237 -1.000000
v -0.200000 -0.825237 -1.000000
v -0.600000 -0.825237 -1.000000
v -0.600000 1.000000 -1.000000
v -0.200000 1.000000 -1.000000
v 0.200000 1.000000 -1.000000
v 0.600000 1.000000 -1.000000
v 1.000000 0.600000 -1.000000
v 1.000000 0.200000 -1.000000
v 1.000000 -0.200000 -1.000000
v 1.000000 -0.600000 -1.000000
v 1.000000 -1.000000 0.600000
v 1.000000 -1.000000 0.200000
v 1.000000 -1.000000 -0.200000
v 1.000000 -1.000000 -0.600000
v 0.796423 1.000000 -0.600000
v 0.796423 1.000000 -0.200000
v 0.796423 1.000000 0.200000
v 0.796423 1.000000 0.600000
v 1.000000 0.600000 1.000000
v 1.000000 0.200000 1.000000
v 1.000000 -0.200000 1.000000
v 1.000000 -0.600000 1.000000
v -0.600000 -1.000000 1.000000
v -0.200000 -1.000000 1.000000
v 0.200000 -1.000000 1.000000
v 0.600000 -1.000000 1.000000
v 0.600000 1.000000 1.000000
v 0.200000 1.000000 1.000000
v -0.200000 1.000000 1.000000
v -0.600000 1.000000 1.000000
v 0.600000 1.000000 -0.600000
v 0.600000 1.000000 -0.200000
v 0.600000 1.000000 0.200000
v 0.600000 1.000000 0.600000
v 0.200000 1.000000 -0.600000
v 0.200000 1.000000 -0.200000
v 0.200000 1.000000 0.200000
v 0.200000 1.000000 0.600000
v -0.200000 1.000000 -0.600000
v -0.200000 1.000000 -0.200000
v -0.200000 1.000000 0.200000
v -0.200000 1.000000 0.600000
v -0.600000 1.000000 -0.600000
v -0.600000 1.000000 -0.200000
v -0.600000 1.000000 0.200000
v -0.600000 1.000000 0.600000
v -0.600000 -1.000000 -0.600000
v -0.600000 -1.000000 -0.200000
v -0.600000 -1.000000 0.200000
v -0.600000 -1.000000 0.600000
v -0.200000 -1.000000 -0.600000
v -0.200000 -1.000000 -0.200000
v -0.200000 -1.000000 0.200000
v -0.200000 -1.000000 0.600000
v 0.200000 -1.000000 -0.600000
v 0.200000 -1.000000 -0.200000
v 0.200000 -1.000000 0.200000
v 0.200000 -1.000000 0.600000
v 0.600000 -1.000000 -0.600000
v 0.600000 -1.000000 -0.200000
v 0.600000 -1.000000 0.200000
v 0.600000 -1.000000 0.600000
v -0.200000 -1.000000 3.117355
v -0.600000 -1.000000 3.117355
v 0.896387 -0.200000 3.117355
v 0.896387 0.200000 3.117355
v 0.896387 0.600000 3.117355
v 0.715661 0.812568 3.117355
v -0.879118 0.200000 3.117355
v -0.879118 -0.200000 3.117355
v -0.879118 -0.600000 3.117355
v -0.879118 -1.000000 3.117355
v -0.600000 0.812568 3.117355
v 0.600000 -1.000000 3.117355
v 0.896387 -1.000000 3.117355
v 0.896387 -0.600000 3.117355
v -0.698392 0.812568 3.117355
v -0.879118 0.600000 3.117355
v 1.000000 -0.600000 -0.600000
v 1.000000 -0.600000 -0.200000
v 1.000000 -0.600000 0.200000
v 1.000000 -0.600000 0.600000
v 1.000000 -0.200000 -0.600000
v 1.000000 -0.200000 -0.200000
v 1.000000 -0.200000 0.200000
v 1.000000 -0.200000 0.600000
v 1.000000 0.200000 -0.600000
v 1.000000 0.200000 -0.200000
v 1.000000 0.200000 0.200000
v 1.000000 0.200000 0.600000
v 1.000000 0.600000 -0.600000
v 1.000000 0.600000 -0.200000
v 1.000000 0.600000 0.200000
v 1.000000 0.600000 0.600000
v -0.600000 -0.600000 -1.000000
v -0.200000 -0.600000 -1.000000
v 0.200000 -0.600000 -1.000000
v 0.600000 -0.600000 -1.000000
v -0.600000 -0.200000 -1.000000
v -0.200000 -0.200000 -1.000000
v 0.200000 -0.200000 -1.000000
v 0.600000 -0.200000 -1.000000
v -0.600000 0.200000 -1.000000
v -0.200000 -0.074531 -1.000000
v 0.200000 -0.074531 -1.000000
v 0.600000 0.200000 -1.000000
v -0.600000 0.600000 -1.000000
v -0.200000 0.907586 -1.000000
v 0.200000 0.907586 -1.000000
v 0.600000 0.600000 -1.000000
v -1.000000 -0.600000 0.600000
v -1.000000 -0.600000 0.200000
v -1.000000 -0.600000 -0.200000
v -1.000000 -0.600000 -0.600000
v -1.000000 -0.200000 0.600000
v -1.000000 -0.200000 0.200000
v -1.000000 -0.200000 -0.200000
v -1.000000 -0.200000 -0.600000
v -1.000000 0.200000 0.600000
v -1.000000 0.200000 0.200000
v -1.000000 0.200000 -0.200000
v -1.000000 0.200000 -0.600000
v -1.000000 0.600000 0.600000
v -1.000000 0.600000 0.200000
v -1.000000 0.600000 -0.200000
v -1.000000 0.600000 -0.600000
v -0.200000 0.354490 -2.905097
v 0.200000 0.354490 -2.905097
v -0.200000 1.991946 -2.905097
v 0.200000 1.991946 -2.905097
v -0.200000 1.053494 -4.097406
v 0.200000 1.053494 -4.097406
v -0.200000 2.166120 -4.097406
v 0.200000 2.166120 -4.097406
v -0.200000 2.166120 -3.288831
v -0.200000 0.701549 -3.288831
v 0.200000 0.701549 -3.288831
v 0.200000 2.166120 -3.288831
v -0.200000 1.053494 -5.395868
v 0.200000 1.053494 -5.395868
v -0.200000 1.684360 -5.395868
v 0.200000 1.684360 -5.395868
v -1.000000 0.600000 1.000000
v -0.796423 1.000000 1.000000
v 1.000000 -0.600000 1.000000
v 1.000000 -1.000000 1.000000
v 0.600000 -1.000000 1.000000
v -0.600000 1.000000 1.000000
v -1.000000 -1.000000 1.000000
v -1.000000 -0.600000 1.000000
v -1.000000 -0.200000 1.000000
v -1.000000 0.200000 1.000000
v 0.796423 1.000000 1.000000
v 1.000000 0.600000 1.000000
v 1.000000 0.200000 1.000000
v 1.000000 -0.200000 1.000000
v -0.600000 -1.000000 1.000000
v -0.200000 -1.000000 1.000000
v 0.200000 -1.000000 1.000000
v 0.600000 1.000000 1.000000
v 0.200000 1.000000 1.000000
v -0.200000 1.000000 1.000000
v -1.000000 -1.000000 2.394758
v -1.000000 -0.600000 2.489535
v -0.600000 1.000000 2.489535
v -0.600000 -1.000000 2.394758
v -1.000000 -0.200000 2.489535
v -0.200000 -1.000000 2.489535
v -1.000000 0.200000 2.489535
v 0.200000 -1.000000 2.489535
v -1.000000 0.600000 2.489535
v -0.796423 1.000000 2.489535
v 0.600000 -1.000000 2.394758
v 0.796423 1.000000 2.489535
v 1.000000 0.600000 2.489535
v 0.896387 -1.000000 2.394758
v 0.600000 1.000000 2.489535
v 1.000000 0.200000 2.489535
v -0.200000 0.907586 -1.000000
v 0.200000 0.907586 -1.000000
v -0.200000 1.991946 -2.905097
v 0.200000 1.991946 -2.905097
v 0.200000 -1.000000 3.117355
v 0.600000 0.812568 3.117355
v 0.200000 0.812568 3.117355
v -0.200000 0.812568 3.117355
v -0.600000 -0.600000 3.117355
v 0.600000 -0.600000 3.117355
v 0.200000 -0.600000 3.117355
v -0.200000 -0.600000 3.117355
v -0.600000 -0.200000 3.117355
v 0.600000 -0.200000 3.117355
v 0.200000 -0.200000 3.117355
v -0.200000 -0.200000 3.117355
v -0.600000 0.200000 3.117355
v 0.600000 0.200000 3.117355
v 0.200000 0.200000 3.117355
v -0.200000 0.200000 3.117355
v -0.600000 0.600000 3.117355
v 0.600000 0.600000 3.117355
v 0.200000 0.600000 3.117355
v -0.200000 0.600000 3.117355
v 1.000000 -0.600000 2.489535
v 1.000000 -0.200000 2.489535
v 0.200000 1.000000 2.489535
v -0.200000 1.000000 2.489535
v -0.200000 1.000000 1.744767
v 1.000000 -0.200000 1.744767
v -1.000000 -1.000000 1.511808
v -0.600000 1.000000 1.744767
v -0.600000 -1.000000 1.511808
v -0.200000 -1.000000 1.744767
v 0.200000 -1.000000 1.744767
v 0.600000 -1.000000 1.511808
v 0.796423 1.000000 1.744767
v 0.600000 1.000000 1.744767
v 1.000000 0.200000 1.744767
v 1.000000 -1.000000 1.511808
v 1.000000 0.600000 1.744767
v -0.796423 1.000000 1.744767
v -1.000000 0.600000 1.744767
v -1.000000 0.200000 1.744767
v -1.000000 -0.200000 1.744767
v -1.000000 -0.600000 1.744767
v 1.000000 -0.600000 1.744767
v 0.200000 1.000000 1.744767
v -1.000000 -2.303357 -0.940533
v -1.000000 -2.303357 -0.540533
v 1.000000 -2.303357 -0.540533
v 1.000000 -2.303357 -0.940533
v -0.600000 -2.303357 -0.940533
v -0.600000 -2.303357 -0.540533
v 0.600000 -2.303357 -0.940533
v 0.600000 -2.303357 -0.540533
v -1.000000 -3.685991 -0.600000
v -1.000000 -3.685991 -0.200000
v 1.000000 -3.685991 -0.200000
v 1.000000 -3.685991 -0.600000
v -0.600000 -3.685991 -0.600000
v -0.600000 -3.685991 -0.200000
v 0.600000 -3.685991 -0.600000
v 0.600000 -3.685991 -0.200000
v -1.000000 -2.255394 1.370555
v -1.000000 -2.255394 1.739319
v -0.600000 -2.255394 1.370555
v -0.600000 -2.255394 1.739319
v 0.600000 -2.255394 1.370555
v 0.600000 -2.255394 1.739319
v 1.000000 -2.255394 1.739319
v 1.000000 -2.255394 1.370555
v -1.000000 -3.571676 1.744767
v -1.000000 -3.571676 2.113532
v -0.600000 -3.571676 1.744767
v -0.600000 -3.571676 2.113532
v 0.600000 -3.571676 1.744767
v 0.600000 -3.571676 2.113532
v 1.000000 -3.571676 2.113532
v 1.000000 -3.571676 1.744767
v 0.395191 -0.342373 4.292741
v -0.395191 -0.342373 4.292741
v 0.395191 0.449302 4.292741
v -0.395191 0.449302 4.292741
v 0.269328 -0.643416 5.209883
v -0.269328 -0.643416 5.209883
v 0.269328 -0.147657 5.209883
v -0.269328 -0.147657 5.209883
v 0.118775 -0.685644 5.613251
v -0.118775 -0.685644 5.613251
v 0.118775 -0.460433 5.613251
v -0.118775 -0.460433 5.613251
v 0.037543 -0.932321 5.870711
v -0.037543 -0.932321 5.870711
v 0.037543 -0.853012 5.870711
v -0.037543 -0.853012 5.870711
vn -0.8912 0.4536 0.0000
vn 0.0000 0.0000 -1.0000
vn 0.8912 0.4536 0.0000
vn 0.0000 0.0000 1.0000
vn 0.0000 -1.0000 0.0000
vn 0.0000 1.0000 0.0000
vn 0.0000 -0.9164 -0.4004
vn 0.0000 -0.2528 0.9675
vn -1.0000 0.0000 0.0000
vn 1.0000 0.0000 0.0000
vn 0.0000 -0.9756 -0.2197
vn 0.0000 -0.9169 -0.3991
vn 0.0000 0.9106 0.4133
vn 0.0000 -0.7417 -0.6708
vn 0.0000 0.9375 -0.3479
vn 0.0000 0.9582 0.2861
vn 0.9867 0.0000 0.1628
vn 0.9681 -0.2508 0.0000
vn 0.7559 0.6427 0.1248
vn -0.8594 0.4374 0.2648
vn -0.9820 0.0000 0.1891
vn 0.0000 0.8691 0.4947
vn -0.9865 0.0000 -0.1638
vn 0.9909 -0.0677 0.1163
vn 0.0000 -0.2391 -0.9710
vn 0.0000 0.2528 -0.9675
vn 0.0000 0.2391 0.9710
vn 0.0000 0.2735 0.9619
vn 0.0000 -0.4628 0.8865
vn 0.0000 0.1118 -0.9937
vn 0.0000 -0.2735 -0.9619
vn 0.9907 0.0000 0.1360
vn 0.0000 -0.9080 -0.4190
vn 0.9865 0.0000 -0.1638
vn 0.0000 0.9919 0.1272
vn -0.9369 0.0000 0.3497
vn 0.0000 -0.9501 -0.3119
vn -0.9907 0.0000 0.1360
vn 0.0000 0.8381 0.5455
vn 0.0000 0.5484 0.8362
vn 0.0000 0.7903 0.6128
vn 0.9369 0.0000 0.3497
vn 0.0000 -0.9946 -0.1041
vn 0.9537 0.0000 0.3009
vn 0.0000 -0.7221 -0.6918
vn -0.9537 0.0000 0.3009
vn 0.8646 0.4400 0.2426
vn -0.7538 0.6409 0.1451
vn -0.9855 -0.0391 0.1649
vn 0.9930 0.0211 0.1165
s off
f 20//1 21//1 152//1
f 136//2 8//2 33//2
f 44//3 45//3 120//3
f 213//4 98//4 90//4
f 37//5 52//5 88//5
f 17//6 56//6 72//6
f 60//6 6//6 44//6
f 64//6 53//6 60//6
f 68//6 54//6 64//6
f 72//6 55//6 68//6
f 32//6 41//6 8//6
f 57//6 42//6 41//6
f 42//6 59//6 43//6
f 59//6 44//6 43//6
f 31//6 57//6 32//6
f 61//6 58//6 57//6
f 62//6 59//6 58//6
f 63//6 60//6 59//6
f 30//6 61//6 31//6
f 65//6 62//6 61//6
f 66//6 63//6 62//6
f 67//6 64//6 63//6
f 29//6 65//6 30//6
f 69//6 66//6 65//6
f 70//6 67//6 66//6
f 71//6 68//6 67//6
f 4//6 69//6 29//6
f 20//6 70//6 69//6
f 19//6 71//6 70//6
f 71//6 17//6 72//6
f 76//5 1//5 12//5
f 80//5 49//5 76//5
f 84//5 50//5 80//5
f 88//5 51//5 84//5
f 28//7 9//7 3//7
f 86//8 255//8 39//8
f 74//5 11//5 10//5
f 75//5 12//5 11//5
f 27//7 73//7 28//7
f 77//5 74//5 73//5
f 78//5 75//5 74//5
f 79//5 76//5 75//5
f 26//7 77//7 27//7
f 81//5 78//5 77//5
f 82//5 79//5 78//5
f 83//5 80//5 79//5
f 25//7 81//7 26//7
f 85//5 82//5 81//5
f 86//5 83//5 82//5
f 87//5 84//5 83//5
f 7//7 85//7 25//7
f 85//9 260//9 86//9
f 39//5 87//5 86//5
f 38//5 88//5 87//5
f 225//4 103//4 104//4
f 5//4 171//4 172//4
f 155//4 205//4 207//4
f 13//4 175//4 176//4
f 49//4 184//4 183//4
f 134//4 206//4 205//4
f 2//4 169//4 170//4
f 135//4 208//4 206//4
f 1//4 183//4 175//4
f 55//4 174//4 188//4
f 48//4 182//4 171//4
f 54//4 188//4 187//4
f 47//4 181//4 182//4
f 53//4 187//4 186//4
f 156//4 207//4 208//4
f 46//4 180//4 181//4
f 16//4 178//4 169//4
f 6//4 186//4 179//4
f 45//4 179//4 180//4
f 56//4 170//4 174//4
f 15//4 177//4 178//4
f 51//4 173//4 185//4
f 52//4 172//4 173//4
f 14//4 176//4 177//4
f 108//10 5//10 37//10
f 112//10 48//10 108//10
f 116//10 47//10 112//10
f 120//10 46//10 116//10
f 7//10 105//10 40//10
f 105//10 39//10 40//10
f 106//10 38//10 39//10
f 107//10 37//10 38//10
f 35//10 105//10 36//10
f 109//10 106//10 105//10
f 110//10 107//10 106//10
f 111//10 108//10 107//10
f 34//10 109//10 35//10
f 113//10 110//10 109//10
f 114//10 111//10 110//10
f 115//10 112//10 111//10
f 33//10 113//10 34//10
f 117//10 114//10 113//10
f 118//10 115//10 114//10
f 119//10 116//10 115//10
f 8//3 117//3 33//3
f 41//3 118//3 117//3
f 42//3 119//3 118//3
f 43//3 120//3 119//3
f 124//2 7//2 25//2
f 128//2 36//2 124//2
f 132//2 35//2 128//2
f 136//2 34//2 132//2
f 24//2 28//2 3//2
f 121//2 27//2 28//2
f 122//2 26//2 27//2
f 123//2 25//2 26//2
f 23//2 121//2 24//2
f 125//2 122//2 121//2
f 126//2 123//2 122//2
f 127//2 124//2 123//2
f 22//2 125//2 23//2
f 125//2 130//2 126//2
f 130//2 127//2 126//2
f 131//2 128//2 127//2
f 21//2 129//2 22//2
f 133//2 130//2 129//2
f 50//4 185//4 184//4
f 131//2 136//2 132//2
f 4//2 133//2 21//2
f 29//2 134//2 133//2
f 30//2 135//2 134//2
f 135//2 32//2 136//2
f 140//9 3//9 9//9
f 144//9 24//9 140//9
f 148//9 23//9 144//9
f 152//9 22//9 148//9
f 13//9 12//9 1//9
f 137//9 11//9 12//9
f 138//9 10//9 11//9
f 139//9 9//9 10//9
f 14//9 137//9 13//9
f 141//9 138//9 137//9
f 142//9 139//9 138//9
f 143//9 140//9 139//9
f 15//9 141//9 14//9
f 145//9 142//9 141//9
f 146//9 143//9 142//9
f 147//9 144//9 143//9
f 16//9 145//9 15//9
f 149//9 146//9 145//9
f 150//9 147//9 146//9
f 151//9 148//9 147//9
f 2//1 149//1 16//1
f 17//1 150//1 149//1
f 18//1 151//1 150//1
f 151//1 20//1 152//1
f 161//9 157//9 162//9
f 135//10 154//10 156//10
f 130//11 154//11 131//11
f 134//9 153//9 130//9
f 158//10 168//10 160//10
f 162//12 158//12 163//12
f 164//10 158//10 160//10
f 164//6 159//6 161//6
f 156//13 161//13 155//13
f 156//10 163//10 164//10
f 153//14 163//14 154//14
f 155//9 162//9 153//9
f 167//2 166//2 165//2
f 160//15 167//15 159//15
f 157//9 167//9 165//9
f 157//5 166//5 158//5
f 237//10 272//10 271//10
f 236//6 232//6 233//6
f 250//9 189//9 190//9
f 234//10 229//10 251//10
f 233//6 231//6 252//6
f 191//16 103//16 99//16
f 204//17 91//17 230//17
f 231//16 210//16 203//16
f 202//5 100//5 199//5
f 201//17 92//17 204//17
f 203//16 94//16 200//16
f 229//18 101//18 202//18
f 201//19 94//19 93//19
f 196//5 100//5 209//5
f 197//20 103//20 198//20
f 195//21 104//21 197//21
f 196//5 89//5 194//5
f 193//21 95//21 195//21
f 194//5 90//5 192//5
f 190//21 96//21 193//21
f 192//5 98//5 189//5
f 191//16 212//16 232//16
f 190//21 98//21 97//21
f 230//17 102//17 229//17
f 232//16 211//16 231//16
f 206//22 207//22 205//22
f 217//4 97//4 213//4
f 221//4 96//4 217//4
f 225//4 95//4 221//4
f 102//4 100//4 101//4
f 214//4 209//4 100//4
f 215//4 89//4 209//4
f 216//4 90//4 89//4
f 91//4 214//4 102//4
f 218//4 215//4 214//4
f 219//4 216//4 215//4
f 220//4 213//4 216//4
f 92//4 218//4 91//4
f 222//4 219//4 218//4
f 223//4 220//4 219//4
f 224//4 217//4 220//4
f 93//4 222//4 92//4
f 226//4 223//4 222//4
f 224//23 288//23 228//23
f 228//4 221//4 224//4
f 94//4 226//4 93//4
f 210//4 227//4 226//4
f 211//4 228//4 227//4
f 212//4 225//4 228//4
f 250//9 193//9 249//9
f 238//5 192//5 237//5
f 249//9 195//9 248//9
f 239//5 194//5 238//5
f 248//9 197//9 247//9
f 247//1 198//1 246//1
f 239//5 199//5 196//5
f 241//3 201//3 245//3
f 251//24 202//24 244//24
f 242//6 200//6 241//6
f 245//10 204//10 243//10
f 244//10 275//10 276//10
f 252//6 203//6 242//6
f 243//10 230//10 234//10
f 246//6 191//6 236//6
f 170//6 236//6 174//6
f 181//10 234//10 182//10
f 187//6 242//6 186//6
f 172//5 240//5 173//5
f 180//10 243//10 181//10
f 186//6 241//6 179//6
f 171//10 244//10 172//10
f 179//3 245//3 180//3
f 185//5 240//5 239//5
f 169//1 246//1 170//1
f 178//9 247//9 169//9
f 185//5 238//5 184//5
f 177//9 248//9 178//9
f 184//5 237//5 183//5
f 176//9 249//9 177//9
f 188//6 252//6 187//6
f 182//10 251//10 171//10
f 176//9 235//9 250//9
f 174//6 233//6 188//6
f 183//5 235//5 175//5
f 258//10 265//10 257//10
f 257//25 261//25 253//25
f 73//10 258//10 257//10
f 73//26 253//26 9//26
f 40//10 255//10 256//10
f 40//26 259//26 85//26
f 9//9 254//9 10//9
f 10//8 258//8 74//8
f 265//5 262//5 261//5
f 264//5 268//5 267//5
f 254//9 261//9 262//9
f 260//27 263//27 255//27
f 254//27 266//27 258//27
f 260//9 267//9 268//9
f 255//10 264//10 256//10
f 256//25 267//25 259//25
f 270//28 280//28 272//28
f 275//10 284//10 276//10
f 202//29 274//29 275//29
f 240//9 274//9 199//9
f 244//30 273//30 240//30
f 237//30 269//30 235//30
f 235//9 270//9 189//9
f 189//29 272//29 192//29
f 279//5 278//5 277//5
f 284//5 282//5 281//5
f 272//10 279//10 271//10
f 276//31 281//31 273//31
f 274//28 283//28 275//28
f 274//9 281//9 282//9
f 270//9 277//9 278//9
f 271//31 277//31 269//31
f 285//32 291//32 289//32
f 223//33 286//33 224//33
f 223//34 287//34 285//34
f 228//35 287//35 227//35
f 290//36 296//36 292//36
f 285//37 290//37 286//37
f 286//38 292//38 288//38
f 288//39 291//39 287//39
f 296//40 299//40 295//40
f 292//41 295//41 291//41
f 289//42 295//42 293//42
f 289//43 294//43 290//43
f 299//4 298//4 297//4
f 293//44 299//44 297//44
f 293//45 298//45 294//45
f 294//46 300//46 296//46
f 20//1 4//1 21//1
f 136//2 32//2 8//2
f 44//3 6//3 45//3
f 213//4 97//4 98//4
f 37//5 5//5 52//5
f 17//6 2//6 56//6
f 60//6 53//6 6//6
f 64//6 54//6 53//6
f 68//6 55//6 54//6
f 72//6 56//6 55//6
f 32//6 57//6 41//6
f 57//6 58//6 42//6
f 42//6 58//6 59//6
f 59//6 60//6 44//6
f 31//6 61//6 57//6
f 61//6 62//6 58//6
f 62//6 63//6 59//6
f 63//6 64//6 60//6
f 30//6 65//6 61//6
f 65//6 66//6 62//6
f 66//6 67//6 63//6
f 67//6 68//6 64//6
f 29//6 69//6 65//6
f 69//6 70//6 66//6
f 70//6 71//6 67//6
f 71//6 72//6 68//6
f 4//6 20//6 69//6
f 20//6 19//6 70//6
f 19//6 18//6 71//6
f 71//6 18//6 17//6
f 76//5 49//5 1//5
f 80//5 50//5 49//5
f 84//5 51//5 50//5
f 88//5 52//5 51//5
f 28//7 73//7 9//7
f 86//8 260//8 255//8
f 74//5 75//5 11//5
f 75//5 76//5 12//5
f 27//7 77//7 73//7
f 77//5 78//5 74//5
f 78//5 79//5 75//5
f 79//5 80//5 76//5
f 26//7 81//7 77//7
f 81//5 82//5 78//5
f 82//5 83//5 79//5
f 83//5 84//5 80//5
f 25//7 85//7 81//7
f 85//5 86//5 82//5
f 86//5 87//5 83//5
f 87//5 88//5 84//5
f 7//7 40//7 85//7
f 85//9 259//9 260//9
f 39//5 38//5 87//5
f 38//5 37//5 88//5
f 225//4 99//4 103//4
f 5//4 48//4 171//4
f 155//4 134//4 205//4
f 13//4 1//4 175//4
f 49//4 50//4 184//4
f 134//4 135//4 206//4
f 2//4 16//4 169//4
f 135//4 156//4 208//4
f 1//4 49//4 183//4
f 55//4 56//4 174//4
f 48//4 47//4 182//4
f 54//4 55//4 188//4
f 47//4 46//4 181//4
f 53//4 54//4 187//4
f 156//4 155//4 207//4
f 46//4 45//4 180//4
f 16//4 15//4 178//4
f 6//4 53//4 186//4
f 45//4 6//4 179//4
f 56//4 2//4 170//4
f 15//4 14//4 177//4
f 51//4 52//4 173//4
f 52//4 5//4 172//4
f 14//4 13//4 176//4
f 108//10 48//10 5//10
f 112//10 47//10 48//10
f 116//10 46//10 47//10
f 120//10 45//10 46//10
f 7//10 36//10 105//10
f 105//10 106//10 39//10
f 106//10 107//10 38//10
f 107//10 108//10 37//10
f 35//10 109//10 105//10
f 109//10 110//10 106//10
f 110//10 111//10 107//10
f 111//10 112//10 108//10
f 34//10 113//10 109//10
f 113//10 114//10 110//10
f 114//10 115//10 111//10
f 115//10 116//10 112//10
f 33//10 117//10 113//10
f 117//10 118//10 114//10
f 118//10 119//10 115//10
f 119//10 120//10 116//10
f 8//3 41//3 117//3
f 41//3 42//3 118//3
f 42//3 43//3 119//3
f 43//3 44//3 120//3
f 124//2 36//2 7//2
f 128//2 35//2 36//2
f 132//2 34//2 35//2
f 136//2 33//2 34//2
f 24//2 121//2 28//2
f 121//2 122//2 27//2
f 122//2 123//2 26//2
f 123//2 124//2 25//2
f 23//2 125//2 121//2
f 125//2 126//2 122//2
f 126//2 127//2 123//2
f 127//2 128//2 124//2
f 22//2 129//2 125//2
f 125//2 129//2 130//2
f 130//2 131//2 127//2
f 131//2 132//2 128//2
f 21//2 133//2 129//2
f 133//2 134//2 130//2
f 50//4 51//4 185//4
f 131//2 135//2 136//2
f 4//2 29//2 133//2
f 29//2 30//2 134//2
f 30//2 31//2 135//2
f 135//2 31//2 32//2
f 140//9 24//9 3//9
f 144//9 23//9 24//9
f 148//9 22//9 23//9
f 152//9 21//9 22//9
f 13//9 137//9 12//9
f 137//9 138//9 11//9
f 138//9 139//9 10//9
f 139//9 140//9 9//9
f 14//9 141//9 137//9
f 141//9 142//9 138//9
f 142//9 143//9 139//9
f 143//9 144//9 140//9
f 15//9 145//9 141//9
f 145//9 146//9 142//9
f 146//9 147//9 143//9
f 147//9 148//9 144//9
f 16//9 149//9 145//9
f 149//9 150//9 146//9
f 150//9 151//9 147//9
f 151//9 152//9 148//9
f 2//1 17//1 149//1
f 17//1 18//1 150//1
f 18//1 19//1 151//1
f 151//1 19//1 20//1
f 161//9 159//9 157//9
f 135//10 131//10 154//10
f 130//11 153//11 154//11
f 134//9 155//9 153//9
f 158//10 166//10 168//10
f 162//12 157//12 158//12
f 164//10 163//10 158//10
f 164//6 160//6 159//6
f 156//13 164//13 161//13
f 156//10 154//10 163//10
f 153//14 162//14 163//14
f 155//9 161//9 162//9
f 167//2 168//2 166//2
f 160//15 168//15 167//15
f 157//9 159//9 167//9
f 157//5 165//5 166//5
f 237//10 192//10 272//10
f 236//6 191//6 232//6
f 250//9 235//9 189//9
f 234//10 230//10 229//10
f 233//6 232//6 231//6
f 191//16 198//16 103//16
f 204//17 92//17 91//17
f 231//16 211//16 210//16
f 202//5 101//5 100//5
f 201//17 93//17 92//17
f 203//16 210//16 94//16
f 229//17 102//17 101//17
f 201//47 200//47 94//47
f 196//5 199//5 100//5
f 197//48 104//48 103//48
f 195//21 95//21 104//21
f 196//5 209//5 89//5
f 193//21 96//21 95//21
f 194//5 89//5 90//5
f 190//21 97//21 96//21
f 192//5 90//5 98//5
f 191//16 99//16 212//16
f 190//49 189//49 98//49
f 230//17 91//17 102//17
f 232//16 212//16 211//16
f 206//22 208//22 207//22
f 217//4 96//4 97//4
f 221//4 95//4 96//4
f 225//4 104//4 95//4
f 102//4 214//4 100//4
f 214//4 215//4 209//4
f 215//4 216//4 89//4
f 216//4 213//4 90//4
f 91//4 218//4 214//4
f 218//4 219//4 215//4
f 219//4 220//4 216//4
f 220//4 217//4 213//4
f 92//4 222//4 218//4
f 222//4 223//4 219//4
f 223//4 224//4 220//4
f 224//4 221//4 217//4
f 93//4 226//4 222//4
f 226//4 227//4 223//4
f 224//23 286//23 288//23
f 228//4 225//4 221//4
f 94//4 210//4 226//4
f 210//4 211//4 227//4
f 211//4 212//4 228//4
f 212//4 99//4 225//4
f 250//9 190//9 193//9
f 238//5 194//5 192//5
f 249//9 193//9 195//9
f 239//5 196//5 194//5
f 248//9 195//9 197//9
f 247//1 197//1 198//1
f 239//5 240//5 199//5
f 241//3 200//3 201//3
f 251//18 229//18 202//18
f 242//6 203//6 200//6
f 245//10 201//10 204//10
f 244//50 202//50 275//50
f 252//6 231//6 203//6
f 243//10 204//10 230//10
f 246//6 198//6 191//6
f 170//6 246//6 236//6
f 181//10 243//10 234//10
f 187//6 252//6 242//6
f 172//5 244//5 240//5
f 180//10 245//10 243//10
f 186//6 242//6 241//6
f 171//10 251//10 244//10
f 179//3 241//3 245//3
f 185//5 173//5 240//5
f 169//1 247//1 246//1
f 178//9 248//9 247//9
f 185//5 239//5 238//5
f 177//9 249//9 248//9
f 184//5 238//5 237//5
f 176//9 250//9 249//9
f 188//6 233//6 252//6
f 182//10 234//10 251//10
f 176//9 175//9 235//9
f 174//6 236//6 233//6
f 183//5 237//5 235//5
f 258//10 266//10 265//10
f 257//25 265//25 261//25
f 73//10 74//10 258//10
f 73//26 257//26 253//26
f 40//10 39//10 255//10
f 40//26 256//26 259//26
f 9//9 253//9 254//9
f 10//8 254//8 258//8
f 265//5 266//5 262//5
f 264//5 263//5 268//5
f 254//9 253//9 261//9
f 260//27 268//27 263//27
f 254//27 262//27 266//27
f 260//9 259//9 267//9
f 255//10 263//10 264//10
f 256//25 264//25 267//25
f 270//28 278//28 280//28
f 275//10 283//10 284//10
f 202//29 199//29 274//29
f 240//9 273//9 274//9
f 244//30 276//30 273//30
f 237//30 271//30 269//30
f 235//9 269//9 270//9
f 189//29 270//29 272//29
f 279//5 280//5 278//5
f 284//5 283//5 282//5
f 272//10 280//10 279//10
f 276//31 284//31 281//31
f 274//28 282//28 283//28
f 274//9 273//9 281//9
f 270//9 269//9 277//9
f 271//31 279//31 277//31
f 285//32 287//32 291//32
f 223//33 285//33 286//33
f 223//34 227//34 287//34
f 228//35 288//35 287//35
f 290//36 294//36 296//36
f 285//37 289//37 290//37
f 286//38 290//38 292//38
f 288//39 292//39 291//39
f 296//40 300//40 299//40
f 292//41 296//41 295//41
f 289//42 291//42 295//42
f 289//43 293//43 294//43
f 299//4 300//4 298//4
f 293//44 295//44 299//44
f 293//45 297//45 298//45
f 294//46 298//46 300//46
